<?xml version="1.0" encoding="utf-8"?>
<!-- Generator: Adobe Illustrator 18.1.1, SVG Export Plug-In . SVG Version: 6.00 Build 0)  -->
<!DOCTYPE svg PUBLIC "-//W3C//DTD SVG 1.1//EN" "http://www.w3.org/Graphics/SVG/1.1/DTD/svg11.dtd">
<svg version="1.1" id="Layer_1" xmlns="http://www.w3.org/2000/svg" xmlns:xlink="http://www.w3.org/1999/xlink" x="0px" y="0px"
	 viewBox="123.6 -0.3 595.2 595.2" enable-background="new 123.6 -0.3 595.2 595.2" xml:space="preserve">
<linearGradient id="SVGID_1_" gradientUnits="userSpaceOnUse" x1="-121.5623" y1="594.1821" x2="-122.6298" y2="592.728" gradientTransform="matrix(595.1793 0 0 -595.1793 72988.5781 353647.9375)">
	<stop  offset="0" style="stop-color:#185B9E"/>
	<stop  offset="1" style="stop-color:#55AF95"/>
</linearGradient>
<circle fill="url(#SVGID_1_)" cx="421.2" cy="297.3" r="297.6"/>
<g>
	<path fill="#FFFFFF" d="M477.2,236.9c3-1.8,4.9-5.1,4.9-8.6c0-3.5-1.8-6.8-4.9-8.6l-116.8-70.9c-3.1-1.9-8.8-2-12-0.2
		c-3.2,1.8-7.5,5.2-7.5,8.8v23.9c0,7.3-4,13.6-11.3,14.7c-38,6.2-68.2,38.9-68.2,78.2c0,11.8,2.9,22.9,7.5,32.9
		c0.7,1.5,2.4,2.5,4.1,2.5c1.7,0,3.3-1,4-2.6c9.2-20.4,26.7-36.2,48.3-43c4.2-1.3,7.5-0.6,11.1,2c3.6,2.6,4.4,6.7,4.4,11.2v22
		c0,3.6,4.3,7,7.4,8.8c3.2,1.8,8.7,1.7,11.9-0.2L477.2,236.9z"/>
	<path fill="#FFFFFF" d="M573.3,288c-0.7-1.6-2.4-2.6-4.1-2.6c-1.7,0-3.4,1-4.1,2.6c-10.5,24.2-28.9,36.5-48.2,42.6
		c-4.2,1.3-7.8,0.6-11.3-2c-3.6-2.6-4.6-6.7-4.6-11.2v-22c0-3.7-4-7-7.2-8.8c-3.2-1.8-8.6-1.7-11.8,0.2l-116.8,70.9
		c-3,1.8-4.9,5.1-4.9,8.6c0,3.5,1.9,6.8,4.9,8.6L482,446c3.1,1.9,8.6,2,11.8,0.2c3.2-1.8,7.2-5.2,7.2-8.8v-23.9
		c0-7.3,4.3-13.5,11.5-14.7c38-6.2,68.3-38.8,68.3-78.2C580.8,311.4,577.9,298.8,573.3,288z"/>
</g>
</svg>
