<svg xmlns="http://www.w3.org/2000/svg" width="544.2" height="544.2" viewBox="0 0 544.2 544.2"><g fill="#fff"><path d="M327.6 210.4c3-1.8 4.9-5.1 4.9-8.6s-1.8-6.8-4.9-8.6l-116.8-70.9c-3.1-1.9-8.8-2-12-.2s-7.5 5.2-7.5 8.8v23.9c0 7.3-4 13.6-11.3 14.7-38 6.2-68.2 38.9-68.2 78.2 0 11.8 2.9 22.9 7.5 32.9.7 1.5 2.4 2.5 4.1 2.5s3.3-1 4-2.6c9.2-20.4 26.7-36.2 48.3-43 4.2-1.3 7.5-.6 11.1 2s4.4 6.7 4.4 11.2v22c0 3.6 4.3 7 7.4 8.8 3.2 1.8 8.7 1.7 11.9-.2l117.1-70.9zM423.7 261.5c-.7-1.6-2.4-2.6-4.1-2.6s-3.4 1-4.1 2.6c-10.5 24.2-28.9 36.5-48.2 42.6-4.2 1.3-7.8.6-11.3-2-3.6-2.6-4.6-6.7-4.6-11.2v-22c0-3.7-4-7-7.2-8.8s-8.6-1.7-11.8.2l-116.8 70.9c-3 1.8-4.9 5.1-4.9 8.6s1.9 6.8 4.9 8.6l116.8 71.1c3.1 1.9 8.6 2 11.8.2 3.2-1.8 7.2-5.2 7.2-8.8V387c0-7.3 4.3-13.5 11.5-14.7 38-6.2 68.3-38.8 68.3-78.2 0-9.2-2.9-21.8-7.5-32.6z"/></g><path d="M272.1 0C2.1 0 0 121.8 0 272.1s2.1 272.1 272.1 272.1 272.1-121.8 272.1-272.1S542.1 0 272.1 0zm-72.9 282.7c-3.1-1.8-7.4-5.2-7.4-8.8v-22c0-4.5-.8-8.6-4.4-11.2-3.6-2.6-6.9-3.3-11.1-2-21.6 6.8-39.1 22.6-48.3 43-.7 1.6-2.3 2.6-4 2.6s-3.4-1-4.1-2.5c-4.6-10-7.5-21.1-7.5-32.9 0-39.3 30.2-72 68.2-78.2 7.3-1.1 11.3-7.4 11.3-14.7v-23.9c0-3.6 4.3-7 7.5-8.8s8.9-1.7 12 .2l116.8 70.9c3.1 1.8 4.9 5.1 4.9 8.6s-1.9 6.8-4.9 8.6l-117.1 70.9c-3.2 1.9-8.7 2-11.9.2zm164.3 90.8c-7.2 1.2-11.5 7.4-11.5 14.7v23.9c0 3.6-4 7-7.2 8.8s-8.7 1.7-11.8-.2l-116.8-71.1c-3-1.8-4.9-5.1-4.9-8.6s1.9-6.8 4.9-8.6L333 261.5c3.2-1.9 8.6-2 11.8-.2s7.2 5.1 7.2 8.8v22c0 4.5 1 8.6 4.6 11.2 3.5 2.6 7.1 3.3 11.3 2 19.3-6.1 37.7-18.4 48.2-42.6.7-1.6 2.4-2.6 4.1-2.6s3.4 1 4.1 2.6c4.6 10.8 7.5 23.4 7.5 32.6 0 39.4-30.3 72-68.3 78.2z" fill="#236a9c"/></svg>