<?xml version="1.0" encoding="utf-8"?>
<!-- Generator: Adobe Illustrator 18.1.1, SVG Export Plug-In . SVG Version: 6.00 Build 0)  -->
<!DOCTYPE svg PUBLIC "-//W3C//DTD SVG 1.1//EN" "http://www.w3.org/Graphics/SVG/1.1/DTD/svg11.dtd">
<svg version="1.1" id="Layer_1" xmlns="http://www.w3.org/2000/svg" xmlns:xlink="http://www.w3.org/1999/xlink" x="0px" y="0px"
	 viewBox="0 0 319.3 300.3" enable-background="new 0 0 319.3 300.3" xml:space="preserve">
<g>
	<path fill="#030405" d="M215.8,89.7c3-1.8,4.9-5.1,4.9-8.6c0-3.5-1.8-6.8-4.9-8.6L99,1.5c-3.1-1.9-9-2-12.2-0.2
		c-3.2,1.8-7.6,5.2-7.6,8.8V34c0,7.3-3.9,13.6-11.1,14.7C30.1,54.9,0,87.6,0,127c0,11.8,3,22.9,7.6,32.9c0.7,1.5,2.4,2.5,4.2,2.5
		c1.7,0,3.3-1,4-2.6c9.2-20.4,26.7-36.2,48.3-43c4.2-1.3,7.4-0.6,10.9,2c3.6,2.6,4.2,6.7,4.2,11.2v22c0,3.6,4.5,7,7.6,8.8
		c3.2,1.8,8.8,1.7,12-0.2L215.8,89.7z"/>
	<path fill="#030405" d="M311.9,140.8c-0.7-1.6-2.4-2.6-4.1-2.6c-1.7,0-3.4,1-4.1,2.6c-10.5,24.2-28.9,36.5-48.2,42.6
		c-4.2,1.3-8,0.6-11.5-2c-3.6-2.6-4.8-6.7-4.8-11.2v-22c0-3.7-3.9-7-7-8.8c-3.2-1.8-8.5-1.7-11.7,0.2l-116.7,70.9
		c-3,1.8-4.9,5.1-4.9,8.6c0,3.5,1.9,6.8,4.9,8.6l116.8,70.9c3.1,1.9,8.4,2,11.6,0.2c3.2-1.8,7-5.2,7-8.8v-23.9
		c0-7.3,4.5-13.5,11.7-14.7c38-6.2,68.4-38.8,68.4-78.2C319.3,164.2,316.5,151.7,311.9,140.8z"/>
</g>
</svg>
