<?xml version="1.0" encoding="iso-8859-1"?>
<!-- Generator: Adobe Illustrator 21.1.0, SVG Export Plug-In . SVG Version: 6.00 Build 0)  -->
<svg version="1.1" id="Layer_1" xmlns="http://www.w3.org/2000/svg" xmlns:xlink="http://www.w3.org/1999/xlink" x="0px" y="0px"
	 width="319.4px" height="300.18px" viewBox="0 0 319.4 300.18" style="enable-background:new 0 0 319.4 300.18;"
	 xml:space="preserve">
<g>
	<path d="M215.8,89.59c3-1.8,4.9-5.1,4.9-8.6s-1.8-6.8-4.9-8.6L99,1.49c-3.1-1.9-8.8-2-12-0.2
		s-7.5,5.2-7.5,8.8v23.9c0,7.3-4,13.6-11.3,14.7c-38,6.2-68.2,38.9-68.2,78.2c0,11.8,2.9,22.9,7.5,32.9c0.7,1.5,2.4,2.5,4.1,2.5
		s3.3-1,4-2.6c9.2-20.4,26.7-36.2,48.3-43c4.2-1.3,7.5-0.6,11.1,2s4.4,6.7,4.4,11.2v22c0,3.6,4.3,7,7.4,8.8
		c3.2,1.8,8.7,1.7,11.9-0.2L215.8,89.59L215.8,89.59z M311.9,140.69c-0.7-1.6-2.4-2.6-4.1-2.6s-3.4,1-4.1,2.6
		c-10.5,24.2-28.9,36.5-48.2,42.6c-4.2,1.3-7.8,0.6-11.3-2c-3.6-2.6-4.6-6.7-4.6-11.2v-22c0-3.7-4-7-7.2-8.8s-8.6-1.7-11.8,0.2
		l-116.8,70.9c-3,1.8-4.9,5.1-4.9,8.6s1.9,6.8,4.9,8.6l116.8,71.1c3.1,1.9,8.6,2,11.8,0.2c3.2-1.8,7.2-5.2,7.2-8.8v-23.9
		c0-7.3,4.3-13.5,11.5-14.7c38-6.2,68.3-38.8,68.3-78.2C319.4,164.09,316.5,151.49,311.9,140.69L311.9,140.69z"/>
</g>
</svg>
